<?xml version="1.0" encoding="UTF-8" standalone="no"?>
<svg
   xmlns:dc="http://purl.org/dc/elements/1.1/"
   xmlns:cc="http://creativecommons.org/ns#"
   xmlns:rdf="http://www.w3.org/1999/02/22-rdf-syntax-ns#"
   xmlns:svg="http://www.w3.org/2000/svg"
   xmlns="http://www.w3.org/2000/svg"
   version="1.1"
   viewBox="0 0 1 1"
   preserveAspectRatio="xMinYMin meet">
  <defs>
    <clipPath id="clip">
      <path
         d="M 0,0 0,1 1,1 1,0 0,0 z M 0.765078125,0.250390625 0.844765625,0.32984375 0.44703125,0.727578125 0.36734375,0.807265625 0.287890625,0.727578125 0.155234375,0.59515625 0.234921875,0.51546875 0.36734375,0.648125 0.765078125,0.250390625 z"
         style="fill:#ffffff;fill-opacity:1;stroke:none" />
    </clipPath>
    <mask id="mask" maskUnits="objectBoundingBox" maskContentUnits="objectBoundingBox">
      <path
         d="M 0,0 0,1 1,1 1,0 0,0 z M 0.765078125,0.250390625 0.844765625,0.32984375 0.44703125,0.727578125 0.36734375,0.807265625 0.287890625,0.727578125 0.155234375,0.59515625 0.234921875,0.51546875 0.36734375,0.648125 0.765078125,0.250390625 z"
         style="fill:#ffffff;fill-opacity:1;stroke:none" />
    </mask>
  </defs>
  <rect
     width="1"
     height="1"
     x="0"
     y="0"
     clip-path="url(#clip)"
     style="fill:#000000;fill-opacity:1;stroke:none" />
</svg>
