<?xml version="1.0" encoding="utf-8"?>
<svg xmlns="http://www.w3.org/2000/svg" xmlns:xlink="http://www.w3.org/1999/xlink" x="0px" y="0px" width="48px" height="48px" 
	 viewBox="0 0 48 48" enable-background="new 0 0 48 48" >
<g enable-background="new 0 0 24 24" fill="var(--om-tint-color)" id="omTheme">
	<g>
		<rect fill="none" width="48" height="48"/>
		<rect fill="none" width="48" height="48"/>
	</g>
	<g>
		<path d="M33.4,15.4L33.4,15.4c-0.8,0.8-0.8,2,0,2.8l3.8,3.8H18.8c-1.1,0-2,0.9-2,2l0,0c0,1.1,0.9,2,2,2h18.4l-3.8,3.8
			c-0.8,0.8-0.8,2,0,2.8l0,0c0.8,0.8,2,0.8,2.8,0l7.2-7.2c0.8-0.8,0.8-2,0-2.8l-7.2-7.2C35.5,14.6,34.2,14.6,33.4,15.4z M8,10h14
			c1.1,0,2-0.9,2-2l0,0c0-1.1-0.9-2-2-2H8c-2.2,0-4,1.8-4,4v28c0,2.2,1.8,4,4,4h14c1.1,0,2-0.9,2-2l0,0c0-1.1-0.9-2-2-2H8V10z"/>
	</g>
</g>
</svg>
